<svg id="Layer_1" data-name="Layer 1" xmlns="http://www.w3.org/2000/svg" viewBox="0 0 255.87 368.06"><defs><style>.cls-1{fill:#fa0f0c;}</style></defs><title>Blood</title><path class="cls-1" d="M254.24,221.41c-3.1-18-9.51-35.06-16.88-51.73a506.52,506.52,0,0,0-24.16-47.2c-8.91-15.52-18.45-30.65-28.33-45.56C176,63.56,166.69,50.55,157.26,37.61c-8.75-12-17.81-23.76-27-35.43C128-.69,127.91-.69,125.76,2,113,18,100.83,34.4,88.89,51c-9.82,13.64-19.18,27.6-28.21,41.78-9.5,14.92-18.54,30.1-26.88,45.71A397.73,397.73,0,0,0,9.06,193.53a164.51,164.51,0,0,0-7.57,28.79,120.23,120.23,0,0,0,3.22,52.06,128.71,128.71,0,0,0,61.74,77.81,125,125,0,0,0,45.16,14.66c1.15.15,2.6-.23,3.32,1.21h4.14c.65-.56,1.43-.2,2.15-.3.48,0,1-.13,1.4.3h11.82c.37-.4.85-.28,1.3-.3s1.18-.18,1.66.3h2.36c.18-1.08,1.09-.63,1.65-.72,10.71-1.63,21.25-3.79,31.47-7.6a127.6,127.6,0,0,0,79.38-89.68A119.7,119.7,0,0,0,254.24,221.41ZM112.06,67c-.86,8.27-3.46,16.14-5.71,24.07-8.57,30.27-18.77,60.06-26.43,90.58-5.51,22-10.27,44.08-10.66,66.89-.25,15,2.6,29.57,5.94,44.06,2.64,11.39,5.17,22.83,9.41,33.78a11,11,0,0,1,.35,1.74,77.29,77.29,0,0,1-14.2-8.34,91.27,91.27,0,0,1-32.12-40.94c-7.57-19-10.51-38.72-6.2-59,2.59-12.17,7.41-23.6,12.7-34.82s11.22-21.85,17.14-32.6S74.79,131.14,81,120.47c5.85-10.06,11.71-20.12,17.41-30.28,4.51-8,8.74-16.21,13-24.37C112.59,65.7,112.15,66.45,112.06,67Z" transform="translate(0 0)"/></svg>